HIERARCHY
ROOT mug2
{
	OFFSET 0.000000 0.000000 0.000000
	CHANNELS 6 Xposition Yposition Zposition Yrotation Xrotation Zrotation
	End Site
	{
		OFFSET 0.000000 0.000000 0.000000
	}
}
MOTION
Frames: 105
Frame Time: 0.008333334
1.408239 3.415331 3.684903 -99.541410 0.898325 3.726091 
1.408561 3.415315 3.684927 -99.539220 0.899995 3.728160 
1.408387 3.415430 3.684981 -99.547420 0.892488 3.765245 
1.408057 3.415369 3.685087 -99.544680 0.906744 3.727132 
1.407664 3.415364 3.685272 -99.542110 0.905241 3.723605 
1.407803 3.416040 3.684709 -99.527340 0.974087 3.579207 
1.407551 3.415895 3.685049 -99.539150 0.963750 3.593871 
1.407345 3.415685 3.685456 -99.548490 0.942263 3.636931 
1.407656 3.415877 3.685397 -99.542790 0.939141 3.663695 
1.407693 3.415756 3.685792 -99.554810 0.952939 3.605006 
1.407623 3.415709 3.686283 -99.535370 0.961966 3.610567 
1.407632 3.415184 3.686657 -99.506230 0.929159 3.679295 
1.406963 3.415365 3.687229 -99.545840 0.901892 3.727127 
1.407233 3.415499 3.687596 -99.545650 0.934273 3.621015 
1.407113 3.415752 3.687508 -99.529360 0.968963 3.587027 
1.406786 3.415953 3.687654 -99.548680 0.984407 3.591522 
1.406457 3.416070 3.687613 -99.559140 0.964538 3.647867 
1.406302 3.415707 3.687849 -99.537840 0.963706 3.616755 
1.405746 3.415438 3.687361 -99.556700 0.915674 3.630300 
1.404913 3.414926 3.687769 -99.565610 0.872766 3.708476 
1.404779 3.414550 3.687518 -99.552920 0.896930 3.627177 
1.403991 3.414789 3.687488 -99.562960 0.894714 3.700049 
1.403459 3.414754 3.687184 -99.568730 0.902102 3.708892 
1.402893 3.414300 3.687018 -99.542240 0.940040 3.600487 
1.402850 3.414186 3.686392 -99.549990 0.934443 3.630406 
1.402550 3.414158 3.686287 -99.554020 0.933142 3.631178 
1.402264 3.414344 3.686193 -99.578520 0.916145 3.693393 
1.402707 3.414175 3.686362 -99.537750 0.951158 3.660021 
1.402520 3.413981 3.686272 -99.547420 0.916786 3.690743 
1.402585 3.414188 3.686259 -99.546690 0.934594 3.644126 
1.402071 3.414059 3.686565 -99.540770 0.918811 3.741748 
1.402368 3.414123 3.686517 -99.550480 0.939699 3.636294 
1.402121 3.414099 3.686735 -99.536770 0.949482 3.665395 
1.401478 3.413852 3.687202 -99.542630 0.928089 3.708680 
1.401297 3.413694 3.687357 -99.549500 0.922769 3.651002 
1.401415 3.413748 3.687328 -99.530730 0.949909 3.606190 
1.400957 3.413666 3.687696 -99.533630 0.926694 3.671932 
1.401015 3.413637 3.687463 -99.527830 0.961945 3.683996 
1.401150 3.413878 3.687407 -99.542360 0.958137 3.663187 
1.401033 3.413860 3.687295 -99.546810 0.971824 3.671025 
1.400759 3.414385 3.686836 -99.566800 1.019812 3.636449 
1.400395 3.414331 3.686682 -99.554750 1.001219 3.656548 
1.399512 3.414043 3.686845 -99.567660 0.993431 3.675237 
1.399259 3.414044 3.686558 -99.580170 1.005967 3.728398 
1.399082 3.413485 3.686621 -99.593290 0.953647 3.698451 
1.398906 3.413725 3.686181 -99.572690 0.980431 3.652303 
1.399477 3.414127 3.685558 -99.567720 1.016133 3.632914 
1.399420 3.413823 3.685771 -99.583250 1.007589 3.638324 
1.399280 3.413829 3.685190 -99.571040 0.999655 3.609506 
1.399108 3.414321 3.684903 -99.578770 1.046720 3.654588 
1.399126 3.414227 3.684441 -99.575870 1.039769 3.686817 
1.398938 3.414211 3.684114 -99.571110 1.039188 3.668427 
1.398831 3.414060 3.683865 -99.588500 1.016681 3.698468 
1.398485 3.414326 3.683358 -99.566680 1.038764 3.709224 
1.398474 3.414251 3.683063 -99.559940 1.043436 3.683209 
1.398578 3.414215 3.682995 -99.569550 1.054000 3.690191 
1.398156 3.414333 3.682795 -99.621280 1.017807 3.779977 
1.397941 3.414461 3.682626 -99.612520 1.030698 3.770881 
1.398062 3.414158 3.682866 -99.631380 0.995527 3.792778 
1.398072 3.414426 3.682661 -99.600980 1.045635 3.773532 
1.397725 3.414221 3.682943 -99.615910 1.001306 3.826530 
1.398205 3.414479 3.682212 -99.622470 1.033740 3.781578 
1.398251 3.414463 3.681962 -99.615110 1.016834 3.791469 
1.398338 3.414311 3.681833 -99.610900 0.990694 3.806921 
1.398578 3.414457 3.681188 -99.614590 1.029309 3.774763 
1.398627 3.414499 3.681109 -99.637390 1.025057 3.750932 
1.398476 3.414415 3.681208 -99.640990 1.017249 3.755938 
1.398550 3.414474 3.680594 -99.631870 1.023633 3.703934 
1.398323 3.414631 3.680500 -99.654630 1.039420 3.720711 
1.398521 3.414343 3.680502 -99.653170 1.018445 3.698165 
1.398406 3.414334 3.680540 -99.654790 1.026194 3.706505 
1.398463 3.414605 3.680210 -99.641240 1.069524 3.685838 
1.399330 3.413927 3.680262 -99.542880 1.099019 3.495701 
1.398561 3.414328 3.679950 -99.654210 1.032399 3.666611 
1.398695 3.414322 3.679641 -99.646760 1.040751 3.684949 
1.398892 3.414408 3.679078 -99.612240 1.060094 3.710115 
1.398459 3.414628 3.678697 -99.602230 1.105428 3.694074 
1.397477 3.413958 3.678313 -99.668760 1.036246 3.677468 
1.397099 3.414041 3.677774 -99.641780 1.089039 3.704172 
1.396474 3.413726 3.677145 -99.633670 1.092114 3.705085 
1.396105 3.413624 3.676274 -99.588900 1.167727 3.668542 
1.395633 3.413350 3.675501 -99.576200 1.170397 3.678207 
1.394938 3.413100 3.675098 -99.579860 1.159870 3.724425 
1.394506 3.412921 3.674335 -99.584380 1.157449 3.705681 
1.394662 3.412841 3.673733 -99.574430 1.167060 3.731433 
1.395027 3.412746 3.673393 -99.564940 1.162949 3.728369 
1.395282 3.413107 3.672950 -99.569820 1.206742 3.747610 
1.395509 3.412900 3.672437 -99.565580 1.191781 3.714303 
1.395134 3.412723 3.671822 -99.574770 1.215261 3.691407 
1.394976 3.412417 3.671551 -99.572140 1.220684 3.703830 
1.394409 3.412271 3.670824 -99.564760 1.230301 3.712796 
1.393744 3.411964 3.670285 -99.575200 1.258649 3.690312 
1.393034 3.411848 3.669354 -99.604680 1.237145 3.692361 
1.392815 3.411795 3.668464 -99.566680 1.247648 3.719911 
1.392376 3.411650 3.668092 -99.611880 1.213746 3.841184 
1.392654 3.412041 3.667593 -99.601010 1.231232 3.840197 
1.393045 3.411705 3.667643 -99.595640 1.211364 3.776184 
1.393669 3.411896 3.667074 -99.571170 1.265736 3.797989 
1.393928 3.411906 3.667421 -99.596250 1.255869 3.784125 
1.394558 3.411688 3.667950 -99.577060 1.213611 3.755362 
1.394633 3.411961 3.668381 -99.579410 1.222778 3.763836 
1.394411 3.411897 3.669233 -99.600950 1.210384 3.807034 
1.394786 3.411593 3.670191 -99.550480 1.226921 3.619182 
1.394234 3.411789 3.670925 -99.554320 1.232764 3.672958 
1.394147 3.411491 3.671970 -99.564240 1.227102 3.625305 
